<svg width="23" height="20" viewBox="0 0 23 20" fill="none" xmlns="http://www.w3.org/2000/svg">
<rect x="4.98438" y="0.890625" width="13.6211" height="19.1093" fill="#D28800"/>
<rect x="4.98438" y="1.5332" width="13.6211" height="1.61943" fill="#FBCF04"/>
<rect x="4.98438" y="17.7285" width="13.6211" height="1.61943" fill="#FBCF04"/>
<rect x="4.98438" y="13.8418" width="13.6211" height="1.61943" fill="#FBCF04"/>
<rect x="4.98438" y="5.1582" width="13.6211" height="1.61943" fill="#FBCF04"/>
<rect x="0.867188" y="0.890625" width="3.80123" height="10.0405" fill="#D28800"/>
<rect x="2.14062" y="10.6035" width="2.53415" height="8.42105" fill="#D28800"/>
<rect x="18.6094" y="0.890625" width="3.80123" height="10.0405" fill="#D28800"/>
<rect x="18.6094" y="10.6035" width="2.53415" height="8.42105" fill="#D28800"/>
<rect x="4.67188" y="9.63477" width="13.9378" height="1.94332" fill="#FBB603"/>
<mask id="mask0_12431_95625" style="mask-type:alpha" maskUnits="userSpaceOnUse" x="0" y="-1" width="23" height="21">
<path d="M22.1899 -0.00195312H18.943C18.7278 -0.00195312 18.5213 0.0854514 18.3691 0.241147C18.2168 0.396764 18.1313 0.607879 18.1313 0.828006V1.65797H5.14377V0.828006C5.14377 0.607895 5.05828 0.396781 4.90601 0.241147C4.75381 0.0854426 4.54733 -0.00195312 4.33204 -0.00195312H1.08516C0.869884 -0.00195312 0.66341 0.0854514 0.511196 0.241147C0.358913 0.396764 0.273438 0.607879 0.273438 0.828006V10.7875C0.273438 11.0076 0.358922 11.2187 0.511196 11.3744C0.663393 11.5301 0.869869 11.6175 1.08516 11.6175V19.0871C1.08516 19.3072 1.17064 19.5183 1.32292 19.674C1.47511 19.8297 1.68159 19.9171 1.89688 19.9171H21.3782C21.5935 19.9171 21.7999 19.8297 21.9522 19.674C22.1044 19.5184 22.1899 19.3072 22.1899 19.0871V11.6175C22.4052 11.6175 22.6117 11.5301 22.7639 11.3744C22.9162 11.2188 23.0016 11.0076 23.0016 10.7875V0.828006C23.0016 0.607895 22.9162 0.396781 22.7639 0.241147C22.6117 0.0854426 22.4052 -0.00195312 22.1899 -0.00195312ZM19.7547 1.65797H21.3782V9.95756H19.7547V1.65797ZM18.1313 3.31789V9.95756H14.8844V9.1276C14.8844 8.68737 14.7134 8.26513 14.4089 7.95391C14.1045 7.64259 13.6915 7.46768 13.261 7.46768H10.0141C9.58354 7.46768 9.17057 7.64258 8.86619 7.95391C8.56172 8.26513 8.39065 8.68739 8.39065 9.1276V9.95756H5.14377V3.31789H18.1313ZM13.261 12.4474H10.0141V9.1276H13.261V12.4474ZM1.89688 1.65797H3.52032V9.95756H1.89688V1.65797ZM2.7086 11.6175H4.33204V18.2572H2.7086V11.6175ZM5.95549 11.6175H8.39065V12.4474C8.39065 12.8877 8.5617 13.3099 8.86619 13.6211C9.17057 13.9324 9.58356 14.1074 10.0141 14.1074H10.8258V14.9373C10.8258 15.2338 10.9805 15.5078 11.2317 15.6561C11.4828 15.8044 11.7923 15.8044 12.0434 15.6561C12.2945 15.5078 12.4493 15.2339 12.4493 14.9373V14.1074H13.261C13.6915 14.1074 14.1045 13.9325 14.4089 13.6211C14.7134 13.3099 14.8844 12.8877 14.8844 12.4474V11.6175H17.3196V18.2572H5.95549V11.6175ZM20.5665 18.2572H18.943V11.6175H20.5665V18.2572Z" fill="black"/>
</mask>
<g mask="url(#mask0_12431_95625)">
<path fill-rule="evenodd" clip-rule="evenodd" d="M5.33067 -6.23828H-4.50781V11.5755H-3.88281V27.7728H5.95567V9.95898H5.33067V-6.23828Z" fill="#FBB603"/>
<path fill-rule="evenodd" clip-rule="evenodd" d="M27.7929 -6.23828H17.6562V11.5755H18.2812V27.7728H28.4179V9.95898H27.7929V-6.23828Z" fill="#FBB603"/>
</g>
<rect x="8.47656" y="7.36719" width="6.33539" height="6.80162" rx="3.16769" fill="#FBCF04"/>
<path d="M11.6456 8.98828C10.2652 8.98828 10.687 10.3055 11.0704 10.9641C10.6103 12.4231 10.8787 12.5852 11.0704 12.4839C11.4539 12.5346 12.2496 12.6055 12.3646 12.4839C12.4796 12.3623 12.3167 11.3187 12.2208 10.8121C12.6042 10.2041 13.026 8.98828 11.6456 8.98828Z" fill="#DB8E00"/>
</svg>
