<svg width="18" height="18" viewBox="0 0 18 18" fill="none" xmlns="http://www.w3.org/2000/svg">
<g id="vuesax/bulk/location">
<g id="location">
<path id="Vector" opacity="0.4" d="M6.55095 15.1347L6.5508 15.1345C4.43698 13.102 2.26376 10.0189 3.072 6.45439C3.78748 3.30686 6.53526 1.875 8.98842 1.875H8.98846H8.98851H8.98855H8.9886H8.98864H8.98868H8.98872H8.98877H8.98881H8.98885H8.98889H8.98894H8.98898H8.98902H8.98906H8.9891H8.98914H8.98918H8.98923H8.98927H8.98931H8.98935H8.98939H8.98943H8.98947H8.98951H8.98955H8.98959H8.98962H8.98966H8.9897H8.98974H8.98978H8.98982H8.98986H8.98989H8.98993H8.98997H8.99001H8.99005H8.99008H8.99012H8.99016H8.99019H8.99023H8.99027H8.9903H8.99034H8.99038H8.99041H8.99045H8.99048H8.99052H8.99055H8.99059H8.99062H8.99066H8.99069H8.99073H8.99076H8.9908H8.99083H8.99086H8.9909H8.99093H8.99096H8.991H8.99103H8.99106H8.9911H8.99113H8.99116H8.99119H8.99123H8.99126H8.99129H8.99132H8.99135H8.99138H8.99142H8.99145H8.99148H8.99151H8.99154H8.99157H8.9916H8.99163H8.99166H8.99169H8.99172H8.99175H8.99178H8.99181H8.99184H8.99187H8.9919H8.99193H8.99196H8.99198H8.99201H8.99204H8.99207H8.9921H8.99213H8.99215H8.99218H8.99221H8.99224H8.99226H8.99229H8.99232H8.99234H8.99237H8.9924H8.99242H8.99245H8.99248H8.9925H8.99253H8.99256H8.99258H8.99261H8.99263H8.99266H8.99268H8.99271H8.99273H8.99276H8.99278H8.99281H8.99283H8.99286H8.99288H8.9929H8.99293H8.99295H8.99297H8.993H8.99302H8.99304H8.99307H8.99309H8.99311H8.99314H8.99316H8.99318H8.9932H8.99323H8.99325H8.99327H8.99329H8.99331H8.99334H8.99336H8.99338H8.9934H8.99342H8.99344H8.99346H8.99348H8.9935H8.99353H8.99355H8.99357H8.99359H8.99361H8.99363H8.99365H8.99367H8.99369H8.99371H8.99372H8.99374H8.99376H8.99378H8.9938H8.99382H8.99384H8.99386H8.99388H8.99389H8.99391H8.99393H8.99395H8.99397H8.99399H8.994H8.99402H8.99404H8.99406H8.99407H8.99409H8.99411H8.99412H8.99414H8.99416H8.99417H8.99419H8.99421H8.99422H8.99424H8.99426H8.99427H8.99429H8.9943H8.99432H8.99434H8.99435H8.99437H8.99438H8.9944H8.99441H8.99443H8.99444H8.99446H8.99447H8.99449H8.9945H8.99452H8.99453H8.99454H8.99456H8.99457H8.99459H8.9946H8.99461H8.99463H8.99464H8.99465H8.99467H8.99468H8.99469H8.99471H8.99472H8.99473H8.99475H8.99476H8.99477H8.99478H8.9948H8.99481H8.99482H8.99483H8.99485H8.99486H8.99487H8.99488H8.99489H8.9949H8.99492H8.99493H8.99494H8.99495H8.99496H8.99497H8.99498H8.99499H8.99501H8.99502H8.99503H8.99504H8.99505H8.99506H8.99507H8.99508H8.99509H8.9951H8.99511H8.99512H8.99513H8.99514H8.99515H8.99516H8.99517H8.99518H8.99519H8.9952H8.9952H8.99521H8.99522H8.99523H8.99524H8.99525H8.99526H8.99527H8.99528H8.99528H8.99529H8.9953H8.99531H8.99532H8.99533H8.99533H8.99534H8.99535H8.99536H8.99537H8.99537H8.99538H8.99539H8.9954H8.9954H8.99541H8.99542H8.99543H8.99543H8.99544H8.99545H8.99545H8.99546H8.99547H8.99547H8.99548H8.99549H8.99549H8.9955H8.99551H8.99551H8.99552H8.99553H8.99553H8.99554H8.99554H8.99555H8.99556H8.99556H8.99557H8.99557H8.99558H8.99558H8.99559H8.9956H8.9956H8.99561H8.99561H8.99562H8.99562H8.99563H8.99563H8.99564H8.99564H8.99565H8.99565H8.99566H8.99566H8.99567H8.99567H8.99567H8.99568H8.99568H8.99569H8.99569H8.9957H8.9957H8.9957H8.99571H8.99571H8.99572H8.99572H8.99572H8.99573H8.99574H8.99574H8.99574H8.99575H8.99576H8.99576H8.99577H8.99578H8.99578H8.99579H8.9958H8.9958H8.99581H8.99581H8.99582H8.99582H8.99583H8.99583H8.99584H8.99584H8.99584H8.99585H8.99585H8.99586H8.99586H8.99587H8.99587H8.99587H8.99588H8.99588H8.99589H8.99589H8.9959H8.9959H8.9959H8.99591H8.99591H8.99591H8.99592C11.4552 1.875 14.1967 3.31322 14.9124 6.46216C15.7204 10.0263 13.5477 13.1017 11.4335 15.1345L11.4335 15.1345L11.4315 15.1365C10.753 15.7957 9.87525 16.125 8.99592 16.125C8.11708 16.125 7.2381 15.7959 6.55095 15.1347Z" fill="#85BE46" stroke="#85BE46" stroke-width="1.125"/>
<path id="Vector_2" d="M10.8031 7.73359C10.8031 8.72771 9.99724 9.53359 9.00312 9.53359C8.00901 9.53359 7.20312 8.72771 7.20312 7.73359C7.20312 6.73948 8.00901 5.93359 9.00312 5.93359C9.99724 5.93359 10.8031 6.73948 10.8031 7.73359Z" fill="#85BE46" stroke="#85BE46" stroke-width="1.125"/>
</g>
</g>
</svg>
