<svg width="24" height="24" viewBox="0 0 24 24" fill="none" xmlns="http://www.w3.org/2000/svg">
<path d="M21.25 5C21.25 6.24264 20.2426 7.25 19 7.25C17.7574 7.25 16.75 6.24264 16.75 5C16.75 3.75736 17.7574 2.75 19 2.75C20.2426 2.75 21.25 3.75736 21.25 5Z" fill="#85BE46" stroke="#85BE46" stroke-width="1.5"/>
<path opacity="0.4" d="M13.75 5C13.75 7.89421 16.1058 10.25 19 10.25C19.4326 10.25 19.8471 10.1921 20.24 10.0905V16.48C20.24 18.0611 19.7722 19.2321 18.9972 20.0072C18.2221 20.7822 17.0511 21.25 15.47 21.25H7.52C5.94441 21.25 4.77317 20.7825 3.99658 20.0059C3.22005 19.2294 2.75 18.0557 2.75 16.47V8.52C2.75 6.93989 3.21971 5.76868 3.99623 4.99318C4.77292 4.21752 5.9444 3.75 7.52 3.75H13.9118C13.8089 4.14628 13.75 4.56373 13.75 5Z" fill="#85BE46" stroke="#85BE46" stroke-width="1.5"/>
<mask id="path-3-inside-1_12420_23954" fill="white">
<path d="M11.75 14H6.75C6.34 14 6 13.66 6 13.25C6 12.84 6.34 12.5 6.75 12.5H11.75C12.16 12.5 12.5 12.84 12.5 13.25C12.5 13.66 12.16 14 11.75 14Z"/>
</mask>
<path d="M11.75 14H6.75C6.34 14 6 13.66 6 13.25C6 12.84 6.34 12.5 6.75 12.5H11.75C12.16 12.5 12.5 12.84 12.5 13.25C12.5 13.66 12.16 14 11.75 14Z" fill="#85BE46"/>
<path d="M11.75 12.5H6.75V15.5H11.75V12.5ZM6.75 12.5C7.16843 12.5 7.5 12.8316 7.5 13.25H4.5C4.5 14.4884 5.51157 15.5 6.75 15.5V12.5ZM7.5 13.25C7.5 13.6684 7.16843 14 6.75 14V11C5.51157 11 4.5 12.0116 4.5 13.25H7.5ZM6.75 14H11.75V11H6.75V14ZM11.75 14C11.3316 14 11 13.6684 11 13.25H14C14 12.0116 12.9884 11 11.75 11V14ZM11 13.25C11 12.8316 11.3316 12.5 11.75 12.5V15.5C12.9884 15.5 14 14.4884 14 13.25H11Z" fill="#85BE46" mask="url(#path-3-inside-1_12420_23954)"/>
<mask id="path-5-inside-2_12420_23954" fill="white">
<path d="M15.75 18H6.75C6.34 18 6 17.66 6 17.25C6 16.84 6.34 16.5 6.75 16.5H15.75C16.16 16.5 16.5 16.84 16.5 17.25C16.5 17.66 16.16 18 15.75 18Z"/>
</mask>
<path d="M15.75 18H6.75C6.34 18 6 17.66 6 17.25C6 16.84 6.34 16.5 6.75 16.5H15.75C16.16 16.5 16.5 16.84 16.5 17.25C16.5 17.66 16.16 18 15.75 18Z" fill="#85BE46"/>
<path d="M15.75 16.5H6.75V19.5H15.75V16.5ZM6.75 16.5C7.16843 16.5 7.5 16.8316 7.5 17.25H4.5C4.5 18.4884 5.51157 19.5 6.75 19.5V16.5ZM7.5 17.25C7.5 17.6684 7.16843 18 6.75 18V15C5.51157 15 4.5 16.0116 4.5 17.25H7.5ZM6.75 18H15.75V15H6.75V18ZM15.75 18C15.3316 18 15 17.6684 15 17.25H18C18 16.0116 16.9884 15 15.75 15V18ZM15 17.25C15 16.8316 15.3316 16.5 15.75 16.5V19.5C16.9884 19.5 18 18.4884 18 17.25H15Z" fill="#85BE46" mask="url(#path-5-inside-2_12420_23954)"/>
</svg>
