<svg width="24" height="24" viewBox="0 0 24 24" fill="none" xmlns="http://www.w3.org/2000/svg">
<path d="M19 8C17.3442 8 16 6.65579 16 5M19 8C20.6558 8 22 6.65579 22 5M19 8C20.6542 8 22 6.65421 22 5M19 8C17.3458 8 16 6.65421 16 5M16 5C16 3.34421 17.3442 2 19 2M16 5C16 3.34579 17.3458 2 19 2M22 5C22 3.34421 20.6558 2 19 2M22 5C22 3.34579 20.6542 2 19 2" fill="#85BE46" stroke="#85BE46" stroke-width="1.5"/>
<mask id="path-2-inside-1_12425_23793" fill="white">
<path d="M12 13.75H7C6.59 13.75 6.25 13.41 6.25 13C6.25 12.59 6.59 12.25 7 12.25H12C12.41 12.25 12.75 12.59 12.75 13C12.75 13.41 12.41 13.75 12 13.75Z"/>
</mask>
<path d="M12 13.75H7C6.59 13.75 6.25 13.41 6.25 13C6.25 12.59 6.59 12.25 7 12.25H12C12.41 12.25 12.75 12.59 12.75 13C12.75 13.41 12.41 13.75 12 13.75Z" fill="#85BE46"/>
<path d="M12 12.25H7V15.25H12V12.25ZM7 12.25C7.41843 12.25 7.75 12.5816 7.75 13H4.75C4.75 14.2384 5.76157 15.25 7 15.25V12.25ZM7.75 13C7.75 13.4184 7.41843 13.75 7 13.75V10.75C5.76157 10.75 4.75 11.7616 4.75 13H7.75ZM7 13.75H12V10.75H7V13.75ZM12 13.75C11.5816 13.75 11.25 13.4184 11.25 13H14.25C14.25 11.7616 13.2384 10.75 12 10.75V13.75ZM11.25 13C11.25 12.5816 11.5816 12.25 12 12.25V15.25C13.2384 15.25 14.25 14.2384 14.25 13H11.25Z" fill="#85BE46" mask="url(#path-2-inside-1_12425_23793)"/>
<mask id="path-4-inside-2_12425_23793" fill="white">
<path d="M16 17.75H7C6.59 17.75 6.25 17.41 6.25 17C6.25 16.59 6.59 16.25 7 16.25H16C16.41 16.25 16.75 16.59 16.75 17C16.75 17.41 16.41 17.75 16 17.75Z"/>
</mask>
<path d="M16 17.75H7C6.59 17.75 6.25 17.41 6.25 17C6.25 16.59 6.59 16.25 7 16.25H16C16.41 16.25 16.75 16.59 16.75 17C16.75 17.41 16.41 17.75 16 17.75Z" fill="#85BE46"/>
<path d="M16 16.25H7V19.25H16V16.25ZM7 16.25C7.41843 16.25 7.75 16.5816 7.75 17H4.75C4.75 18.2384 5.76157 19.25 7 19.25V16.25ZM7.75 17C7.75 17.4184 7.41843 17.75 7 17.75V14.75C5.76157 14.75 4.75 15.7616 4.75 17H7.75ZM7 17.75H16V14.75H7V17.75ZM16 17.75C15.5816 17.75 15.25 17.4184 15.25 17H18.25C18.25 15.7616 17.2384 14.75 16 14.75V17.75ZM15.25 17C15.25 16.5816 15.5816 16.25 16 16.25V19.25C17.2384 19.25 18.25 18.2384 18.25 17H15.25Z" fill="#85BE46" mask="url(#path-4-inside-2_12425_23793)"/>
<mask id="path-6-inside-3_12425_23793" fill="white">
<path d="M15 22.75H9C3.57 22.75 1.25 20.43 1.25 15V9C1.25 3.57 3.57 1.25 9 1.25H14C14.41 1.25 14.75 1.59 14.75 2C14.75 2.41 14.41 2.75 14 2.75H9C4.39 2.75 2.75 4.39 2.75 9V15C2.75 19.61 4.39 21.25 9 21.25H15C19.61 21.25 21.25 19.61 21.25 15V10C21.25 9.59 21.59 9.25 22 9.25C22.41 9.25 22.75 9.59 22.75 10V15C22.75 20.43 20.43 22.75 15 22.75Z"/>
</mask>
<path d="M15 22.75H9C3.57 22.75 1.25 20.43 1.25 15V9C1.25 3.57 3.57 1.25 9 1.25H14C14.41 1.25 14.75 1.59 14.75 2C14.75 2.41 14.41 2.75 14 2.75H9C4.39 2.75 2.75 4.39 2.75 9V15C2.75 19.61 4.39 21.25 9 21.25H15C19.61 21.25 21.25 19.61 21.25 15V10C21.25 9.59 21.59 9.25 22 9.25C22.41 9.25 22.75 9.59 22.75 10V15C22.75 20.43 20.43 22.75 15 22.75Z" fill="#85BE46"/>
<path d="M15 21.25H9V24.25H15V21.25ZM9 21.25C6.45719 21.25 4.99977 20.701 4.14941 19.8506C3.29905 19.0002 2.75 17.5428 2.75 15H-0.25C-0.25 17.8872 0.360951 20.3048 2.02809 21.9719C3.69523 23.639 6.11281 24.25 9 24.25V21.25ZM2.75 15V9H-0.25V15H2.75ZM2.75 9C2.75 6.45719 3.29905 4.99977 4.14941 4.14941C4.99977 3.29905 6.45719 2.75 9 2.75V-0.25C6.11281 -0.25 3.69523 0.360951 2.02809 2.02809C0.360951 3.69523 -0.25 6.11281 -0.25 9H2.75ZM9 2.75H14V-0.25H9V2.75ZM14 2.75C13.5816 2.75 13.25 2.41843 13.25 2H16.25C16.25 0.761573 15.2384 -0.25 14 -0.25V2.75ZM13.25 2C13.25 1.58157 13.5816 1.25 14 1.25V4.25C15.2384 4.25 16.25 3.23843 16.25 2H13.25ZM14 1.25H9V4.25H14V1.25ZM9 1.25C6.58917 1.25 4.50797 1.66321 3.08559 3.08559C1.66321 4.50797 1.25 6.58917 1.25 9H4.25C4.25 6.80083 4.65679 5.75703 5.20691 5.20691C5.75703 4.65679 6.80083 4.25 9 4.25V1.25ZM1.25 9V15H4.25V9H1.25ZM1.25 15C1.25 17.4108 1.66321 19.492 3.08559 20.9144C4.50797 22.3368 6.58917 22.75 9 22.75V19.75C6.80083 19.75 5.75703 19.3432 5.20691 18.7931C4.65679 18.243 4.25 17.1992 4.25 15H1.25ZM9 22.75H15V19.75H9V22.75ZM15 22.75C17.4108 22.75 19.492 22.3368 20.9144 20.9144C22.3368 19.492 22.75 17.4108 22.75 15H19.75C19.75 17.1992 19.3432 18.243 18.7931 18.7931C18.243 19.3432 17.1992 19.75 15 19.75V22.75ZM22.75 15V10H19.75V15H22.75ZM22.75 10C22.75 10.4184 22.4184 10.75 22 10.75V7.75C20.7616 7.75 19.75 8.76157 19.75 10H22.75ZM22 10.75C21.5816 10.75 21.25 10.4184 21.25 10H24.25C24.25 8.76157 23.2384 7.75 22 7.75V10.75ZM21.25 10V15H24.25V10H21.25ZM21.25 15C21.25 17.5428 20.701 19.0002 19.8506 19.8506C19.0002 20.701 17.5428 21.25 15 21.25V24.25C17.8872 24.25 20.3048 23.639 21.9719 21.9719C23.639 20.3048 24.25 17.8872 24.25 15H21.25Z" fill="#85BE46" mask="url(#path-6-inside-3_12425_23793)"/>
</svg>
