<svg width="25" height="24" viewBox="0 0 25 24" fill="none" xmlns="http://www.w3.org/2000/svg">
<g id="star-02">
<path id="Icon" d="M11.9975 2.71235C12.2041 2.2938 12.8009 2.2938 13.0075 2.71235L15.6815 8.13047C15.7635 8.29668 15.9221 8.41188 16.1055 8.43853L22.0848 9.30736C22.5467 9.37448 22.7311 9.9421 22.3969 10.2679L18.0702 14.4853C17.9375 14.6147 17.8769 14.8011 17.9083 14.9838L18.9296 20.9389C19.0085 21.3989 18.5257 21.7497 18.1126 21.5325L12.7646 18.7209C12.6005 18.6346 12.4045 18.6346 12.2405 18.7209L6.89246 21.5325C6.47933 21.7497 5.99648 21.3989 6.07538 20.9389L7.09676 14.9838C7.12809 14.8011 7.06753 14.6147 6.9348 14.4853L2.60817 10.2679C2.27395 9.9421 2.45838 9.37448 2.92027 9.30736L8.89953 8.43853C9.08294 8.41188 9.2415 8.29668 9.32353 8.13047L11.9975 2.71235Z" fill="#EBEBEC" stroke="#EBEBEC" stroke-width="2" stroke-linejoin="round"/>
</g>
</svg>
