<svg width="32" height="32" viewBox="0 0 32 32" fill="none" xmlns="http://www.w3.org/2000/svg">
<path opacity="0.4" d="M28.0049 13.2566L28.0048 13.2585L27.3115 24.2717C27.3115 24.2717 27.3115 24.2718 27.3115 24.2718C27.234 25.4984 26.8744 26.4973 26.2343 27.1814C25.6134 27.845 24.6144 28.3346 22.9895 28.3346H9.01616C7.39084 28.3346 6.38821 27.8447 5.7657 27.1807C5.12478 26.497 4.76571 25.4995 4.69448 24.2765L4.69418 24.2718L4.00085 13.2585L4.00073 13.2566C3.85161 10.9558 5.68455 9.0013 8.00283 9.0013C9.19979 9.0013 10.2834 8.3174 10.8239 7.27495L10.8279 7.2672L10.8318 7.25938L11.79 5.32963C11.9962 4.92358 12.4024 4.49729 12.9311 4.16971C13.4611 3.8414 14.0241 3.66797 14.4828 3.66797H17.5362C17.9867 3.66797 18.5459 3.84035 19.0752 4.16911C19.6029 4.49691 20.0095 4.92348 20.2157 5.32972C20.2161 5.33063 20.2166 5.33153 20.217 5.33243L21.1738 7.25938L21.1777 7.2672L21.1817 7.27495C21.7223 8.3174 22.8059 9.0013 24.0028 9.0013C26.3211 9.0013 28.154 10.9558 28.0049 13.2566Z" fill="#12161C" stroke="#12161C" stroke-width="2"/>
<mask id="path-2-inside-1_12415_23299" fill="white">
<path d="M18 11.668H14C13.4533 11.668 13 11.2146 13 10.668C13 10.1213 13.4533 9.66797 14 9.66797H18C18.5467 9.66797 19 10.1213 19 10.668C19 11.2146 18.5467 11.668 18 11.668Z"/>
</mask>
<path d="M18 11.668H14C13.4533 11.668 13 11.2146 13 10.668C13 10.1213 13.4533 9.66797 14 9.66797H18C18.5467 9.66797 19 10.1213 19 10.668C19 11.2146 18.5467 11.668 18 11.668Z" fill="#12161C"/>
<path d="M18 9.66797H14V13.668H18V9.66797ZM14 9.66797C14.5579 9.66797 15 10.1101 15 10.668H11C11 12.3192 12.3488 13.668 14 13.668V9.66797ZM15 10.668C15 11.2259 14.5579 11.668 14 11.668V7.66797C12.3488 7.66797 11 9.01673 11 10.668H15ZM14 11.668H18V7.66797H14V11.668ZM18 11.668C17.4421 11.668 17 11.2259 17 10.668H21C21 9.01673 19.6512 7.66797 18 7.66797V11.668ZM17 10.668C17 10.1101 17.4421 9.66797 18 9.66797V13.668C19.6512 13.668 21 12.3192 21 10.668H17Z" fill="#12161C" mask="url(#path-2-inside-1_12415_23299)"/>
<path d="M15.9989 24.1735C18.4878 24.1735 20.5055 22.1558 20.5055 19.6668C20.5055 17.1779 18.4878 15.1602 15.9989 15.1602C13.5099 15.1602 11.4922 17.1779 11.4922 19.6668C11.4922 22.1558 13.5099 24.1735 15.9989 24.1735Z" fill="#12161C"/>
</svg>
