<svg width="32" height="32" viewBox="0 0 32 32" fill="none" xmlns="http://www.w3.org/2000/svg">
<path d="M27.2663 16.349L27.2663 16.349L27.2709 16.3552C27.7993 17.07 28.0279 17.939 27.9341 18.8142L27.9326 18.8278L27.9315 18.8415L27.4389 25.032C27.34 26.0346 27.2435 26.7883 26.8332 27.3422C26.4865 27.8102 25.7438 28.3341 23.8084 28.3341H8.18172C6.246 28.3341 5.49885 27.8099 5.15055 27.342C4.74038 26.791 4.64287 26.0393 4.55142 25.0487L4.0586 18.8285L4.05778 18.8182L4.05676 18.8079C3.96365 17.8769 4.24023 16.9334 4.84522 16.1556C5.14849 15.7807 5.51036 15.4827 5.90915 15.2679L5.91566 15.2644L5.92212 15.2608C6.46775 14.9565 7.06026 14.8008 7.68839 14.8008H24.2884C24.921 14.8008 25.5231 14.9586 26.0474 15.2567L26.0616 15.2648L26.076 15.2724C26.454 15.4713 26.7848 15.7384 27.0717 16.0814L27.2663 16.349ZM12.7951 24.1208H19.1817C20.254 24.1208 21.1151 23.2597 21.1151 22.1874C21.1151 21.1378 20.2633 20.2541 19.1817 20.2541H12.7951C11.7135 20.2541 10.8617 21.1378 10.8617 22.1874C10.8617 23.2371 11.7135 24.1208 12.7951 24.1208Z" fill="#12161C" stroke="#12161C" stroke-width="2"/>
<path opacity="0.4" d="M26.4945 13.0946V13.2436C25.8065 12.9519 25.0708 12.8013 24.3078 12.8013H7.69448C6.93788 12.8013 6.19529 12.9494 5.50781 13.2413V8.8813C5.50781 6.53681 5.88206 5.35127 6.53659 4.69674C7.19111 4.04222 8.37665 3.66797 10.7211 3.66797H12.2945C13.1431 3.66797 13.5796 3.80477 13.861 3.96584C14.1555 4.13438 14.3915 4.3887 14.7641 4.872L16.3594 7.01224L16.3593 7.01229L16.3668 7.02209C16.3706 7.02702 16.3744 7.03201 16.3782 7.03705C16.4535 7.1355 16.5435 7.25331 16.6333 7.35195C16.7377 7.46667 16.8861 7.60681 17.0973 7.7124C17.3084 7.81795 17.5103 7.85305 17.6681 7.8678C17.8123 7.88128 17.9719 7.8813 18.1078 7.8813H21.2811C23.6256 7.8813 24.8112 8.25555 25.4657 8.91007C26.1202 9.5646 26.4945 10.7501 26.4945 13.0946Z" fill="#12161C" stroke="#12161C" stroke-width="2"/>
</svg>
