<svg width="32" height="32" viewBox="0 0 32 32" fill="none" xmlns="http://www.w3.org/2000/svg">
<path d="M27.9992 7.96974L28.0033 7.97013C28.0063 7.97041 28.0078 7.97084 28.0083 7.97099L28.0094 7.97146C28.01 7.97175 28.0114 7.97265 28.0133 7.97463H28.0132H28.013H28.0128H28.0126H28.0123H28.0121H28.0119H28.0117H28.0114H28.0112H28.011H28.0107H28.0105H28.0103H28.0101H28.0098H28.0096H28.0094H28.0092H28.009H28.0087H28.0085H28.0083H28.0081H28.0078H28.0076H28.0074H28.0072H28.007H28.0067H28.0065H28.0063H28.0061H28.0059H28.0056H28.0054H28.0052H28.005H28.0048H28.0045H28.0043H28.0041H28.0039H28.0037H28.0035H28.0032H28.003H28.0028H28.0026H28.0024H28.0022H28.0019H28.0017H28.0015H28.0013H28.0011H28.0009H28.0007H28.0004H28.0002H28H27.9998H27.9996H27.9994H27.9992H27.9989H27.9987H27.9985H27.9983H27.9981H27.9979H27.9977H27.9975H27.9972H27.997H27.9968H27.9966H27.9964H27.9962H27.996H27.9958H27.9956H27.9954H27.9951H27.9949H27.9947H27.9945H27.9943H27.9941H27.9939H27.9937H27.9935H27.9933H27.9931H27.9929H27.9927H27.9924H27.9922H27.992H27.9918H27.9916H27.9914H27.9912H27.991H27.9908H27.9906H27.9904H27.9902H27.99H27.9898H27.9896H27.9894H27.9892H27.989H27.9888H27.9885H27.9883H27.9881H27.9879H27.9877H27.9875H27.9873H27.9871H27.9869H27.9867H27.9865H27.9863H27.9861H27.9859H27.9857H27.9855H27.9853H27.9851H27.9849H27.9847H27.9845H27.9843H27.9841H27.9839H27.9837H27.9835H27.9833H27.9831H27.9829H27.9827H27.9825H27.9823H27.9821H27.9819H27.9817H27.9815H27.9813H27.9811H27.9809H27.9807H27.9805H27.9803H27.9801H27.9799H27.9797H27.9795H27.9793H27.9791H27.9789H27.9787H27.9785H27.9783H27.9781H27.9779H27.9777H27.9775H27.9773H27.9771H27.9769H27.9767H27.9765H27.9763H27.9761H27.9759H27.9757H27.9755H27.9753H27.9751H27.9749H27.9748H27.9746H27.9744H27.9742H27.974H27.9738H27.9736H27.9734H27.9732H27.973H27.9728H27.9726H27.9724H27.9722H27.972H27.9718H27.9716H27.9714H27.9712H27.971H27.9708H27.9706H27.9704H27.9702H27.97H27.9698H27.9697H27.9695H27.9693H27.9691H27.9689H27.9687H27.9685H27.9683H27.9681H27.9679H27.9677H27.9675H27.9673H27.9671H27.9669H27.9667H27.9665H27.9663H27.9661H27.9659H27.9657H27.9655H27.9654H27.9652H27.965H27.9648H27.9646H27.9644H27.9642H27.964H27.9638H27.9636H27.9634H27.9632H27.963H27.9628H27.9626H27.9624H27.9622H27.962H27.9618H27.9616H27.9614H27.9612C26.8911 7.86793 25.8208 7.7712 24.7505 7.68629C25.835 7.76831 26.9173 7.86222 27.9992 7.96974ZM20.6448 6.55199V7.4223C17.405 7.26572 14.1668 7.23885 10.9344 7.39244L11.2095 7.37469L11.3382 6.58987L11.6181 4.88405C11.6181 4.88385 11.6182 4.88364 11.6182 4.88344C11.6182 4.88336 11.6182 4.88328 11.6182 4.8832C11.7315 4.19677 11.834 3.70389 12.1295 3.33982C12.3697 3.04392 12.8861 2.66797 14.2448 2.66797H17.7381C19.0903 2.66797 19.6119 3.05578 19.8574 3.36418C20.1586 3.74238 20.2583 4.24449 20.3645 4.89555L20.3644 4.89556L20.3654 4.90149L20.6448 6.55199Z" fill="#E92727" stroke="#E92727" stroke-width="2"/>
<path opacity="0.3991" d="M24.4289 11.332C24.6052 11.332 24.7818 11.4039 24.9135 11.537C25.0377 11.6761 25.1078 11.8631 25.0972 12.0615C25.0972 12.0621 25.0972 12.0626 25.0971 12.0632L24.2711 25.7193C24.1937 26.795 24.106 27.6276 23.6582 28.2404C23.273 28.7675 22.4385 29.3454 20.2823 29.3454H11.7223C9.56791 29.3454 8.73277 28.7652 8.34688 28.2361C7.89835 27.6211 7.81085 26.7876 7.73342 25.7191L6.90731 12.0483C6.90728 12.0479 6.90726 12.0475 6.90724 12.0471C6.89709 11.8632 6.96654 11.6722 7.0982 11.5291C7.20337 11.4148 7.38349 11.332 7.5756 11.332H24.4289Z" fill="#E92727" stroke="#E92727" stroke-width="2"/>
<path fill-rule="evenodd" clip-rule="evenodd" d="M12.7734 22.668C12.7734 22.1157 13.2212 21.668 13.7734 21.668H18.2134C18.7657 21.668 19.2134 22.1157 19.2134 22.668C19.2134 23.2203 18.7657 23.668 18.2134 23.668H13.7734C13.2212 23.668 12.7734 23.2203 12.7734 22.668Z" fill="#E92727"/>
<path fill-rule="evenodd" clip-rule="evenodd" d="M11.6641 17.332C11.6641 16.7797 12.1118 16.332 12.6641 16.332H19.3307C19.883 16.332 20.3307 16.7797 20.3307 17.332C20.3307 17.8843 19.883 18.332 19.3307 18.332H12.6641C12.1118 18.332 11.6641 17.8843 11.6641 17.332Z" fill="#E92727"/>
</svg>
