<svg width="16" height="16" viewBox="0 0 16 16" fill="none" xmlns="http://www.w3.org/2000/svg">
<path d="M14.6709 9.26443V10.7911C14.6709 13.2178 13.2243 14.6644 10.7976 14.6644H5.21094C3.51094 14.6644 2.28427 13.9511 1.71094 12.6844L1.78427 12.6311L5.06427 10.4311C5.5976 10.0711 6.35094 10.1111 6.82427 10.5244L7.05094 10.7111C7.57094 11.1578 8.41094 11.1578 8.93094 10.7111L11.7043 8.33109C12.2243 7.88443 13.0643 7.88443 13.5843 8.33109L14.6709 9.26443Z" fill="#85BE46"/>
<path opacity="0.4" d="M13.9826 5.33203H12.0226C11.1759 5.33203 10.6693 4.82536 10.6693 3.9787V2.0187C10.6693 1.75203 10.7226 1.52536 10.8159 1.33203C10.8093 1.33203 10.8026 1.33203 10.7959 1.33203H5.20927C2.7826 1.33203 1.33594 2.7787 1.33594 5.20536V10.792C1.33594 11.5187 1.4626 12.152 1.70927 12.6854L1.7826 12.632L5.0626 10.432C5.59594 10.072 6.34927 10.112 6.8226 10.5254L7.04927 10.712C7.56927 11.1587 8.40927 11.1587 8.92927 10.712L11.7026 8.33203C12.2226 7.88536 13.0626 7.88536 13.5826 8.33203L14.6693 9.26536V5.20536C14.6693 5.1987 14.6693 5.19203 14.6693 5.18536C14.4759 5.2787 14.2493 5.33203 13.9826 5.33203Z" fill="#85BE46"/>
<path d="M6.00073 6.91943C6.87702 6.91943 7.5874 6.20905 7.5874 5.33276C7.5874 4.45647 6.87702 3.74609 6.00073 3.74609C5.12444 3.74609 4.41406 4.45647 4.41406 5.33276C4.41406 6.20905 5.12444 6.91943 6.00073 6.91943Z" fill="#85BE46"/>
<path d="M13.9774 0.667969H12.0174C11.1707 0.667969 10.6641 1.17464 10.6641 2.0213V3.9813C10.6641 4.82797 11.1707 5.33464 12.0174 5.33464H13.9774C14.8241 5.33464 15.3307 4.82797 15.3307 3.9813V2.0213C15.3307 1.17464 14.8241 0.667969 13.9774 0.667969ZM12.6707 4.3813C12.6507 4.4013 12.6041 4.42797 12.5707 4.42797L11.8774 4.52797C11.8574 4.53464 11.8307 4.53464 11.8107 4.53464C11.7107 4.53464 11.6241 4.5013 11.5641 4.43464C11.4841 4.35464 11.4507 4.2413 11.4707 4.1213L11.5707 3.42797C11.5774 3.39464 11.5974 3.34797 11.6174 3.32797L12.7507 2.19464C12.7707 2.2413 12.7907 2.29464 12.8107 2.34797C12.8374 2.4013 12.8641 2.44797 12.8907 2.49464C12.9107 2.53464 12.9374 2.57464 12.9641 2.6013C12.9907 2.6413 13.0174 2.6813 13.0374 2.7013C13.0507 2.7213 13.0574 2.72797 13.0641 2.73464C13.1241 2.80797 13.1907 2.87464 13.2507 2.9213C13.2641 2.93464 13.2774 2.94797 13.2841 2.94797C13.3174 2.97464 13.3574 3.00797 13.3841 3.02797C13.4241 3.05464 13.4574 3.0813 13.4974 3.1013C13.5441 3.12797 13.5974 3.15464 13.6507 3.1813C13.7041 3.20797 13.7574 3.22797 13.8041 3.2413L12.6707 4.3813ZM14.2641 2.78797L14.0507 3.0013C14.0374 3.0213 14.0174 3.02797 13.9974 3.02797C13.9907 3.02797 13.9841 3.02797 13.9774 3.02797C13.4974 2.88797 13.1174 2.50797 12.9774 2.02797C12.9707 2.0013 12.9774 1.97464 12.9974 1.95464L13.2174 1.73464C13.5774 1.37464 13.9174 1.3813 14.2707 1.73464C14.4507 1.91464 14.5374 2.08797 14.5374 2.2613C14.5307 2.43464 14.4441 2.60797 14.2641 2.78797Z" fill="#85BE46"/>
</svg>
