<svg width="24" height="24" viewBox="0 0 24 24" fill="none" xmlns="http://www.w3.org/2000/svg">
<path d="M16.9609 6.17188C18.9609 7.56187 20.3409 9.77187 20.6209 12.3219" stroke="#12161C" stroke-width="1.5" stroke-linecap="round" stroke-linejoin="round"/>
<path d="M3.49219 12.3688C3.75219 9.82875 5.11219 7.61875 7.09219 6.21875" stroke="#12161C" stroke-width="1.5" stroke-linecap="round" stroke-linejoin="round"/>
<path d="M8.1875 20.9414C9.3475 21.5314 10.6675 21.8614 12.0575 21.8614C13.3975 21.8614 14.6575 21.5614 15.7875 21.0114" stroke="#292D32" stroke-width="1.5" stroke-linecap="round" stroke-linejoin="round"/>
<path d="M12.0613 7.70062C13.5966 7.70062 14.8413 6.45598 14.8413 4.92062C14.8413 3.38527 13.5966 2.14062 12.0613 2.14062C10.5259 2.14062 9.28125 3.38527 9.28125 4.92062C9.28125 6.45598 10.5259 7.70062 12.0613 7.70062Z" stroke="#292D32" stroke-width="1.5" stroke-linecap="round" stroke-linejoin="round"/>
<path d="M4.82687 19.9194C6.36223 19.9194 7.60688 18.6747 7.60688 17.1394C7.60688 15.604 6.36223 14.3594 4.82687 14.3594C3.29152 14.3594 2.04688 15.604 2.04688 17.1394C2.04688 18.6747 3.29152 19.9194 4.82687 19.9194Z" stroke="#292D32" stroke-width="1.5" stroke-linecap="round" stroke-linejoin="round"/>
<path d="M19.1706 19.9194C20.706 19.9194 21.9506 18.6747 21.9506 17.1394C21.9506 15.604 20.706 14.3594 19.1706 14.3594C17.6353 14.3594 16.3906 15.604 16.3906 17.1394C16.3906 18.6747 17.6353 19.9194 19.1706 19.9194Z" stroke="#292D32" stroke-width="1.5" stroke-linecap="round" stroke-linejoin="round"/>
</svg>
