<svg width="20" height="21" viewBox="0 0 20 21" fill="none" xmlns="http://www.w3.org/2000/svg">
<g id="vuesax/bold/add-square">
<g id="add-square">
<path id="Vector" d="M13.4891 1.84766H6.50573C3.4724 1.84766 1.66406 3.65599 1.66406 6.68932V13.6643C1.66406 16.706 3.4724 18.5143 6.50573 18.5143H13.4807C16.5141 18.5143 18.3224 16.706 18.3224 13.6727V6.68932C18.3307 3.65599 16.5224 1.84766 13.4891 1.84766ZM13.3307 10.806H10.6224V13.5143C10.6224 13.856 10.3391 14.1393 9.9974 14.1393C9.65573 14.1393 9.3724 13.856 9.3724 13.5143V10.806H6.66406C6.3224 10.806 6.03906 10.5227 6.03906 10.181C6.03906 9.83932 6.3224 9.55599 6.66406 9.55599H9.3724V6.84766C9.3724 6.50599 9.65573 6.22266 9.9974 6.22266C10.3391 6.22266 10.6224 6.50599 10.6224 6.84766V9.55599H13.3307C13.6724 9.55599 13.9557 9.83932 13.9557 10.181C13.9557 10.5227 13.6724 10.806 13.3307 10.806Z" fill="#85BE46"/>
</g>
</g>
</svg>
