<svg width="24" height="25" viewBox="0 0 24 25" fill="none" xmlns="http://www.w3.org/2000/svg">
<g id="vuesax/linear/menu-board">
<g id="menu-board">
<path id="Vector" d="M21.9331 6.94458L18.5631 20.4746C18.3231 21.4846 17.4231 22.1846 16.3831 22.1846H3.24306C1.73306 22.1846 0.653075 20.7045 1.10308 19.2545L5.31307 5.73462C5.60307 4.79462 6.47308 4.14453 7.45308 4.14453H19.7531C20.7031 4.14453 21.4931 4.72454 21.8231 5.52454C22.0131 5.95454 22.0531 6.44458 21.9331 6.94458Z" stroke="#85BE46" stroke-width="1.5" stroke-miterlimit="10"/>
<path id="Vector_2" d="M16 22.1836H20.78C22.07 22.1836 23.08 21.0936 22.99 19.8036L22 6.18359" stroke="#85BE46" stroke-width="1.5" stroke-miterlimit="10" stroke-linecap="round" stroke-linejoin="round"/>
<path id="Vector_3" d="M9.67969 6.56213L10.7197 2.24219" stroke="#85BE46" stroke-width="1.5" stroke-miterlimit="10" stroke-linecap="round" stroke-linejoin="round"/>
<path id="Vector_4" d="M16.3828 6.57434L17.3228 2.23438" stroke="#85BE46" stroke-width="1.5" stroke-miterlimit="10" stroke-linecap="round" stroke-linejoin="round"/>
<path id="Vector_5" d="M7.70312 12.1836H15.7031" stroke="#85BE46" stroke-width="1.5" stroke-miterlimit="10" stroke-linecap="round" stroke-linejoin="round"/>
<path id="Vector_6" d="M6.70312 16.1836H14.7031" stroke="#85BE46" stroke-width="1.5" stroke-miterlimit="10" stroke-linecap="round" stroke-linejoin="round"/>
</g>
</g>
</svg>
