<svg width="20" height="21" viewBox="0 0 20 21" fill="none" xmlns="http://www.w3.org/2000/svg">
<g id="vuesax/linear/moneys">
<g id="Group">
<path id="Vector" d="M16.0879 6.78379V11.0754C16.0879 13.6421 14.6212 14.742 12.4212 14.742H5.09631C4.72132 14.742 4.36299 14.7087 4.02966 14.6337C3.82133 14.6004 3.62134 14.5421 3.438 14.4754C2.18802 14.0087 1.42969 12.9254 1.42969 11.0754V6.78379C1.42969 4.21715 2.89633 3.11719 5.09631 3.11719H12.4212C14.2879 3.11719 15.6295 3.90884 15.9879 5.71716C16.0462 6.05049 16.0879 6.39212 16.0879 6.78379Z" stroke="#85BE46" stroke-width="1.24999" stroke-miterlimit="10" stroke-linecap="round" stroke-linejoin="round"/>
<path id="Vector_2" d="M18.5816 9.28535V13.577C18.5816 16.1436 17.115 17.2436 14.915 17.2436H7.59007C6.97341 17.2436 6.41509 17.1603 5.93176 16.977C4.9401 16.6103 4.2651 15.852 4.02344 14.6353C4.35677 14.7103 4.7151 14.7436 5.09009 14.7436H12.415C14.615 14.7436 16.0817 13.6437 16.0817 11.077V6.78538C16.0817 6.39372 16.0483 6.04375 15.9817 5.71875C17.565 6.05208 18.5816 7.16871 18.5816 9.28535Z" stroke="#85BE46" stroke-width="1.24999" stroke-miterlimit="10" stroke-linecap="round" stroke-linejoin="round"/>
<path id="Vector_3" d="M8.75468 11.1344C9.96969 11.1344 10.9547 10.1494 10.9547 8.93437C10.9547 7.71935 9.96969 6.73438 8.75468 6.73438C7.53966 6.73438 6.55469 7.71935 6.55469 8.93437C6.55469 10.1494 7.53966 11.1344 8.75468 11.1344Z" stroke="#85BE46" stroke-width="1.24999" stroke-miterlimit="10" stroke-linecap="round" stroke-linejoin="round"/>
<path id="Vector_4" d="M3.98438 7.10156V10.7682" stroke="#85BE46" stroke-width="1.24999" stroke-miterlimit="10" stroke-linecap="round" stroke-linejoin="round"/>
<path id="Vector_5" d="M13.5156 7.10156V10.7682" stroke="#85BE46" stroke-width="1.24999" stroke-miterlimit="10" stroke-linecap="round" stroke-linejoin="round"/>
</g>
</g>
</svg>
