<svg width="24" height="25" viewBox="0 0 24 25" fill="none" xmlns="http://www.w3.org/2000/svg">
<g id="vuesax/linear/people">
<g id="people">
<g id="Group">
<path id="Vector" d="M17.9981 7.3436C17.9381 7.3336 17.8681 7.3336 17.8081 7.3436C16.4281 7.2936 15.3281 6.1636 15.3281 4.7636C15.3281 3.3336 16.4781 2.18359 17.9081 2.18359C19.3381 2.18359 20.4881 3.3436 20.4881 4.7636C20.4781 6.1636 19.3781 7.2936 17.9981 7.3436Z" stroke="#85BE46" stroke-width="1.5" stroke-linecap="round" stroke-linejoin="round"/>
<path id="Vector_2" d="M16.9675 14.6238C18.3375 14.8538 19.8475 14.6138 20.9075 13.9038C22.3175 12.9638 22.3175 11.4238 20.9075 10.4838C19.8375 9.77376 18.3075 9.53375 16.9375 9.77375" stroke="#85BE46" stroke-width="1.5" stroke-linecap="round" stroke-linejoin="round"/>
</g>
<g id="Group_2">
<path id="Vector_3" d="M5.96656 7.3436C6.02656 7.3336 6.09656 7.3336 6.15656 7.3436C7.53656 7.2936 8.63656 6.1636 8.63656 4.7636C8.63656 3.3336 7.48656 2.18359 6.05656 2.18359C4.62656 2.18359 3.47656 3.3436 3.47656 4.7636C3.48656 6.1636 4.58656 7.2936 5.96656 7.3436Z" stroke="#85BE46" stroke-width="1.5" stroke-linecap="round" stroke-linejoin="round"/>
<path id="Vector_4" d="M6.9975 14.6238C5.6275 14.8538 4.1175 14.6138 3.0575 13.9038C1.6475 12.9638 1.6475 11.4238 3.0575 10.4838C4.1275 9.77376 5.6575 9.53375 7.0275 9.77375" stroke="#85BE46" stroke-width="1.5" stroke-linecap="round" stroke-linejoin="round"/>
</g>
<g id="Group_3">
<path id="Vector_5" d="M11.9981 14.8123C11.9381 14.8023 11.8681 14.8023 11.8081 14.8123C10.4281 14.7623 9.32812 13.6323 9.32812 12.2323C9.32812 10.8023 10.4781 9.65234 11.9081 9.65234C13.3381 9.65234 14.4881 10.8123 14.4881 12.2323C14.4781 13.6323 13.3781 14.7723 11.9981 14.8123Z" stroke="#85BE46" stroke-width="1.5" stroke-linecap="round" stroke-linejoin="round"/>
<path id="Vector_6" d="M9.08875 17.963C7.67875 18.903 7.67875 20.443 9.08875 21.383C10.6888 22.453 13.3087 22.453 14.9087 21.383C16.3187 20.443 16.3187 18.903 14.9087 17.963C13.3187 16.903 10.6888 16.903 9.08875 17.963Z" stroke="#85BE46" stroke-width="1.5" stroke-linecap="round" stroke-linejoin="round"/>
</g>
</g>
</g>
</svg>
