<svg width="72" height="48" viewBox="0 0 72 48" fill="none" xmlns="http://www.w3.org/2000/svg">
<g id="payment-methods/light/mastercard" clip-path="url(#clip0_12390_27851)">
<g id="g13">
<g id="XMLID_328_">
<path id="rect19" d="M43.5092 9.79047L28.0156 9.84375L28.4851 38.2085L43.9787 38.1552L43.5092 9.79047Z" fill="#FF5F00"/>
<path id="XMLID_330_" d="M29.0326 24.0823C28.9367 18.3131 31.5211 13.187 35.5691 9.86196C32.5136 7.46429 28.683 6.02248 24.5306 6.03671C14.6932 6.0704 6.8686 14.1745 7.0345 24.1576C7.2004 34.1408 15.2935 42.1904 25.1308 42.1567C29.2833 42.1425 33.0655 40.6746 36.0409 38.2563C31.8837 35.0095 29.1284 29.8515 29.0326 24.0823Z" fill="#EB001B"/>
<path id="path22" d="M64.9535 23.8404C65.1194 33.8235 57.2947 41.9276 47.4574 41.9613C43.3049 41.9755 39.4743 40.5337 36.4189 38.1361C40.5163 34.8108 43.0513 29.6849 42.9554 23.9157C42.8595 18.1465 40.105 13.0387 35.947 9.74174C38.9225 7.32342 42.7047 5.85554 46.8571 5.84132C56.6945 5.80763 64.7884 13.9074 64.9535 23.8404Z" fill="#F79E1B"/>
</g>
</g>
</g>
<defs>
<clipPath id="clip0_12390_27851">
<rect width="72" height="48" fill="white"/>
</clipPath>
</defs>
</svg>
