<svg width="72" height="48" viewBox="0 0 72 48" fill="none" xmlns="http://www.w3.org/2000/svg">
<g id="payment-methods/light/visa" clip-path="url(#clip0_12390_27840)">
<g id="visa">
<path id="Vector" d="M61.9619 15.0547H58.19C57.0496 15.0547 56.1724 15.4056 55.6461 16.5459L48.4531 32.9494H53.5408C53.5408 32.9494 54.418 30.7564 54.5935 30.2301C55.1198 30.2301 60.1198 30.2301 60.8215 30.2301C60.997 30.8442 61.4356 32.8617 61.4356 32.8617H65.997L61.9619 15.0547ZM55.997 26.5459C56.4356 25.4933 57.9268 21.5459 57.9268 21.5459C57.9268 21.6336 58.3654 20.4933 58.5408 19.8792L58.8917 21.4582C58.8917 21.4582 59.8566 25.7564 60.0321 26.6336H55.997V26.5459Z" fill="#3362AB"/>
<path id="Vector_2" d="M48.8067 27.0698C48.8067 30.754 45.4734 33.2101 40.298 33.2101C38.105 33.2101 35.9997 32.7715 34.8594 32.2452L35.5611 28.2101L36.1752 28.4733C37.7541 29.175 38.8067 29.4382 40.7366 29.4382C42.1401 29.4382 43.6313 28.9119 43.6313 27.6838C43.6313 26.8943 43.0173 26.368 41.0874 25.4908C39.2453 24.6136 36.7892 23.2101 36.7892 20.6663C36.7892 17.1575 40.2103 14.7891 45.0348 14.7891C46.8769 14.7891 48.4559 15.1399 49.4208 15.5785L48.719 19.4382L48.3681 19.0873C47.491 18.7364 46.3506 18.3856 44.6839 18.3856C42.8418 18.4733 41.9646 19.2627 41.9646 19.9645C41.9646 20.754 43.0173 21.368 44.6839 22.1575C47.491 23.4733 48.8067 24.9645 48.8067 27.0698Z" fill="#3362AB"/>
<path id="Vector_3" d="M6 15.2259L6.08772 14.875H13.6316C14.6842 14.875 15.4737 15.2259 15.7368 16.3662L17.4035 24.261C15.7368 20.0504 11.8772 16.6294 6 15.2259Z" fill="#F9B50B"/>
<path id="Vector_4" d="M28.0211 15.0526L20.3895 32.8596H15.2141L10.8281 17.9473C13.986 19.9648 16.6176 23.1227 17.5825 25.3157L18.1088 27.1578L22.8457 14.9648H28.0211V15.0526Z" fill="#3362AB"/>
<path id="Vector_5" d="M30.0389 14.9648H34.8635L31.7933 32.8596H26.9688L30.0389 14.9648Z" fill="#3362AB"/>
</g>
</g>
<defs>
<clipPath id="clip0_12390_27840">
<rect width="72" height="48" fill="white"/>
</clipPath>
</defs>
</svg>
