<svg width="24" height="25" viewBox="0 0 24 25" fill="none" xmlns="http://www.w3.org/2000/svg">
<path d="M9 22.1172H15C20 22.1172 22 20.1172 22 15.1172V9.11719C22 4.11719 20 2.11719 15 2.11719H9C4 2.11719 2 4.11719 2 9.11719V15.1172C2 20.1172 4 22.1172 9 22.1172Z" stroke="#85BE46" stroke-width="1.5" stroke-linecap="round" stroke-linejoin="round"/>
<path d="M9 10.1172C10.1046 10.1172 11 9.22176 11 8.11719C11 7.01262 10.1046 6.11719 9 6.11719C7.89543 6.11719 7 7.01262 7 8.11719C7 9.22176 7.89543 10.1172 9 10.1172Z" stroke="#85BE46" stroke-width="1.5" stroke-linecap="round" stroke-linejoin="round"/>
<path d="M2.67188 19.0658L7.60187 15.7558C8.39187 15.2258 9.53187 15.2858 10.2419 15.8958L10.5719 16.1858C11.3519 16.8558 12.6119 16.8558 13.3919 16.1858L17.5519 12.6158C18.3319 11.9458 19.5919 11.9458 20.3719 12.6158L22.0019 14.0158" stroke="#85BE46" stroke-width="1.5" stroke-linecap="round" stroke-linejoin="round"/>
</svg>
