<svg width="12" height="13" viewBox="0 0 12 13" fill="none" xmlns="http://www.w3.org/2000/svg">
<mask id="mask0_12415_27580" style="mask-type:alpha" maskUnits="userSpaceOnUse" x="0" y="0" width="12" height="12">
<path d="M0.412708 4.33737C0.346118 4.35956 0.287092 4.39999 0.242344 4.45406C0.197596 4.50814 0.168922 4.57369 0.159584 4.64325C0.150246 4.71282 0.160619 4.7836 0.189522 4.84757C0.218426 4.91153 0.264701 4.96609 0.323082 5.00506L3.63924 6.8331C3.70104 6.86716 3.7712 6.88309 3.84166 6.87906C3.91211 6.87502 3.98 6.85119 4.03751 6.8103L7.5605 4.29813C7.73073 4.1841 7.93438 4.38775 7.82036 4.55799L5.30818 8.08097C5.26729 8.13849 5.24346 8.20637 5.23943 8.27682C5.23539 8.34728 5.25132 8.41744 5.28538 8.47925L7.11343 11.7954C7.15239 11.8538 7.20696 11.9001 7.27092 11.929C7.33488 11.9579 7.40567 11.9682 7.47523 11.9589C7.5448 11.9496 7.61035 11.9209 7.66442 11.8761C7.7185 11.8314 7.75893 11.7724 7.78111 11.7058L11.2283 1.36434C11.2502 1.29831 11.2533 1.22747 11.2373 1.15976C11.2213 1.09205 11.1868 1.03013 11.1376 0.980929C11.0884 0.931728 11.0264 0.897185 10.9587 0.881167C10.891 0.865148 10.8202 0.868284 10.7541 0.890224L0.412708 4.33737Z" fill="white"/>
</mask>
<g mask="url(#mask0_12415_27580)">
<rect y="0.117188" width="12" height="12" fill="white"/>
</g>
</svg>
