<svg width="24" height="24" viewBox="0 0 24 24" fill="none" xmlns="http://www.w3.org/2000/svg">
<path d="M18.9381 5.42141L13.7681 2.43141C12.7781 1.86141 11.2281 1.86141 10.2381 2.43141L5.01813 5.44141C2.94813 6.84141 2.82812 7.05141 2.82812 9.28141V14.7114C2.82812 16.9414 2.94813 17.1614 5.05813 18.5814L10.2281 21.5714C10.7281 21.8614 11.3681 22.0014 11.9981 22.0014C12.6281 22.0014 13.2681 21.8614 13.7581 21.5714L18.9781 18.5614C21.0481 17.1614 21.1681 16.9514 21.1681 14.7214V9.28141C21.1681 7.05141 21.0481 6.84141 18.9381 5.42141ZM11.9981 15.2514C10.2081 15.2514 8.74813 13.7914 8.74813 12.0014C8.74813 10.2114 10.2081 8.75141 11.9981 8.75141C13.7881 8.75141 15.2481 10.2114 15.2481 12.0014C15.2481 13.7914 13.7881 15.2514 11.9981 15.2514Z" fill="#85BE46"/>
</svg>
